<svg width="733" height="735" viewBox="0 0 733 735" fill="none" xmlns="http://www.w3.org/2000/svg">
<path d="M241 236L7.99999 236" stroke="#FE6E3D" stroke-width="4" stroke-linecap="round"/>
<path d="M477 236L239 236" stroke="#FE6E3D" stroke-width="4" stroke-linecap="round"/>
<path d="M241.31 235.812L38.2649 351.039" stroke="#FE6E3D" stroke-width="4" stroke-linecap="round"/>
<path d="M446.734 120.578L241.31 235.81" stroke="#FE6E3D" stroke-width="4" stroke-linecap="round"/>
<path d="M241.31 235.812L38.2649 120.577" stroke="#FE6E3D" stroke-width="4" stroke-linecap="round"/>
<path d="M446.734 351.031L241.31 235.809" stroke="#FE6E3D" stroke-width="4" stroke-linecap="round"/>
<path d="M241.31 231.047L125.86 32.368" stroke="#FE6E3D" stroke-width="4" stroke-linecap="round"/>
<path d="M359.141 439.242L241.309 235.812" stroke="#FE6E3D" stroke-width="4" stroke-linecap="round"/>
<path d="M241.31 235.812L359.14 32.3722" stroke="#FE6E3D" stroke-width="4" stroke-linecap="round"/>
<path d="M125.859 439.242L241.31 235.812" stroke="#FE6E3D" stroke-width="4" stroke-linecap="round"/>
<path d="M241 236L241 2.00001" stroke="#FE6E3D" stroke-width="4" stroke-linecap="round"/>
<path d="M241 471L241 233" stroke="#FE6E3D" stroke-width="4" stroke-linecap="round"/>
<rect x="563.434" y="653.945" width="118.381" height="419.565" transform="rotate(136.819 563.434 653.945)" fill="#4284F3"/>
<ellipse cx="651.5" cy="652" rx="81.5" ry="83" fill="#EF7A88"/>
<rect x="628" y="316" width="64" height="66" fill="#6EC1A1"/>
<rect x="628" y="216" width="64" height="66" fill="#6EC1A1"/>
<path d="M201.5 536C254.941 536 306.194 556.966 343.982 594.286C381.771 631.606 403 682.222 403 735H0C8.06936e-06 682.222 21.2293 631.606 59.0176 594.286C96.8062 556.966 148.059 536 201.5 536Z" fill="#F5BC62"/>
</svg>
